<svg xmlns="http://www.w3.org/2000/svg" version="1.1" xmlns:xlink="http://www.w3.org/1999/xlink" xmlns:svgjs="http://svgjs.dev/svgjs" viewBox="0 0 1920 1080"><rect width="1920" height="1080" fill="#84add4"></rect><g transform="matrix(7.04171909509728e-17,1.15,-1.15,7.04171909509728e-17,1548.9211654663086,-527.1093402862548)"><path d="M0,-1080C0.25456204310081415,-976.8965289980374,-7.640164280585443,-677.6466073659889,1.5273722586048848,-461.37917398822447C10.694908797795213,-245.11174061046006,65.94065758220889,-5.545816516652479,55.005219235141965,217.6046002665865C44.06978088807504,440.7550170498255,-61.05107063648853,649.7599908396888,-64.08525782379667,877.5233267112093C-67.1194450111048,1105.2866625827298,26.119219807327063,1370.438503280911,36.80009611129317,1584.1846154957093C47.48097241525928,1797.9307277105077,6.133349351882195,2064.0307692492847,0,2160L 1920 2160 L 1920 -1080 Z" fill="url(&quot;#SvgjsLinearGradient1141&quot;)"></path><path d="M213.33333333333331,-1080C212.7400972639123,-945.8487060621335,200.34472702556783,-534.3133060783468,209.77391691680722,-275.09223637280076C219.2031068080466,-15.87116666725467,271.59394957577587,215.38658353884318,269.9084726807697,475.3264182332764C268.22299578576354,735.2662529277096,209.09024543800973,1003.7678414993447,199.66105554677034,1284.5467717937986C190.23186565553095,1565.3257020882525,211.05462036890614,2014.0911286322998,213.33333333333331,2160L 1920 2160 L 1920 -1080 Z" fill="url(&quot;#SvgjsLinearGradient1142&quot;)"></path><path d="M426.66666666666663,-1080C427.5501971096977,-1013.6107565672194,422.24222894634033,-835.8220393269247,431.96784932485315,-681.6645394033164C441.69346970336596,-527.5070394797082,495.9854623959278,-312.3001232003705,485.0203889377435,-155.05500045835063C474.0553154795592,2.1901222836692114,385.0550043841133,104.22583947842503,366.17740857574745,261.80619704880274C347.2998127673816,419.38655461918046,358.4944803927005,634.9483177491115,371.7548140875482,790.4271449639157C385.0151477823959,945.9059721787198,448.36854793422935,1038.4753151311143,445.7394107448336,1194.6791603376278C443.11027355543786,1350.8830055441413,359.15878163086825,1566.763409592602,355.97999095117376,1727.6502162029974C352.8012002714793,1888.5370228133927,414.8855540474178,2087.9417027004997,426.66666666666663,2160L 1920 2160 L 1920 -1080 Z" fill="url(&quot;#SvgjsLinearGradient1143&quot;)"></path><path d="M640,-1080C648.9291529158393,-984.484141192039,698.3144259793235,-729.6695616147585,693.5749174950353,-506.9048471522344C688.8354090107471,-284.1401326897103,619.2876797221974,17.124061058157565,611.5629490942707,256.5882867751447C603.8382184663441,496.0525124921318,646.8149225323717,717.2465287077331,647.2265337274754,929.8805071496882C647.638144922579,1142.5144855916433,615.2370385528054,1327.3722419518238,614.0326162648928,1532.3921574268757C612.8281939769802,1737.4120729019276,635.6721027108155,2055.3986929044795,640,2160L 1920 2160 L 1920 -1080 Z" fill="url(&quot;#SvgjsLinearGradient1144&quot;)"></path><path d="M853.3333333333333,-1080C865.7851292651469,-981.5101986776963,937.3745338151348,-700.7602952994494,928.0441089242153,-489.06119206617797C918.7136840332957,-277.3620888329066,808.5757715368682,-46.640410679938896,797.3507839878163,190.19461939962824C786.1257964387644,427.02964947919537,861.0834209167499,714.6136891050537,860.6941836299043,931.948988411225C860.3049463430586,1149.2842877173962,796.242168649504,1289.5312466385262,795.0153602667422,1494.2064152366554C793.7885518839803,1698.8815838347846,843.6136711555681,2049.0344025394425,853.3333333333333,2160L 1920 2160 L 1920 -1080 Z" fill="url(&quot;#SvgjsLinearGradient1145&quot;)"></path><path d="M1066.6666666666667,-1080C1072.6936209176695,-952.2690034797021,1112.7113457621845,-575.7941354922712,1102.8283921726834,-313.61402087821267C1092.9454385831823,-51.433906264154245,1001.5930271602762,219.63894659793004,1007.3689451296599,493.0806876843505C1013.1448630990436,766.522428770771,1127.6009463994844,1049.2165402543687,1137.4838999889855,1327.0364256403102C1147.3668535784866,1604.8563110262517,1078.4695388870532,2021.1727376067183,1066.6666666666667,2160L 1920 2160 L 1920 -1080 Z" fill="url(&quot;#SvgjsLinearGradient1146&quot;)"></path><path d="M1280,-1080C1285.7327339108906,-1012.9218885188629,1318.0059283325797,-827.3753392749599,1314.3964034653432,-677.5313311131777C1310.7868785981066,-527.6873229513955,1259.9599683850124,-344.6619500124722,1258.3428507965805,-180.9359510293067C1256.7257332081485,-17.20995204614124,1292.948747088363,155.1606612156646,1304.6936979347515,304.8246627858151C1316.43864878114,454.4886643559656,1322.06880528203,571.8723457039042,1328.8125558749111,717.0480583915966C1335.5563064677922,862.2237710792889,1346.4728207389267,1023.7040055823825,1345.1562014920378,1175.878938911969C1343.839582245149,1328.0538722415556,1331.7722073089174,1466.0774815211107,1320.9128403935777,1630.0976583691158C1310.053473478238,1794.117835217121,1286.818806732263,2071.6829430615194,1280,2160L 1920 2160 L 1920 -1080 Z" fill="url(&quot;#SvgjsLinearGradient1147&quot;)"></path><path d="M1493.3333333333333,-1080C1505.3243833568733,-998.0034496630785,1576.6416463947876,-734.7689826018895,1565.2796334745742,-588.0206979784708C1553.9176205543608,-441.2724133550521,1446.9473689225442,-341.27054853172564,1425.1612558120526,-199.51029225948747C1403.375142701561,-57.750035987249305,1431.1358432871677,105.65272608547221,1434.5629548116242,262.5408396549581C1437.9900663360806,419.42895322444406,1447.0360328209485,570.6245967336009,1445.7239249587917,741.818389157428C1444.4118170966349,913.012181581255,1419.7978076219058,1142.6868073343414,1426.690307638683,1289.7035941979207C1433.58280765546,1436.7203810615,1475.9717541103462,1478.8697093718897,1487.0789250594546,1623.919110338903C1498.186096008563,1768.9685113059163,1492.2909319543535,2070.653185056484,1493.3333333333333,2160L 1920 2160 L 1920 -1080 Z" fill="url(&quot;#SvgjsLinearGradient1148&quot;)"></path><path d="M1706.6666666666665,-1080C1707.6339338429561,-997.0218830712853,1721.2187415775772,-774.0706467438407,1712.4702697244047,-582.1312984277117C1703.7217978712322,-390.19195011158274,1666.9717593111855,-114.17590565960907,1654.1758355476313,71.63608989677357C1641.3799117840772,257.4480854531562,1623.1899107005097,374.7912573093671,1635.6947271430802,532.7406749105842C1648.1995435856506,690.6900925118013,1727.747186561843,838.1990971430811,1729.2047342030544,1019.3325955040759C1730.6622818442659,1200.4660938650707,1648.1963575797474,1429.430430993899,1644.4400129903495,1619.541665076553C1640.6836684009515,1809.652899159207,1696.2955577206137,2069.9236108460923,1706.6666666666665,2160L 1920 2160 L 1920 -1080 Z" fill="url(&quot;#SvgjsLinearGradient1149&quot;)"></path></g><defs><linearGradient x1="0.1" y1="0" x2="0" y2="1" id="SvgjsLinearGradient1141"><stop stop-color="#84add4" offset="0"></stop><stop stop-color="#84bad4" offset="0"></stop></linearGradient><linearGradient x1="0.1" y1="0" x2="0" y2="1" id="SvgjsLinearGradient1142"><stop stop-color="#93b7d9" offset="0"></stop><stop stop-color="#93c3d9" offset="0.1111111111111111"></stop></linearGradient><linearGradient x1="0.1" y1="0" x2="0" y2="1" id="SvgjsLinearGradient1143"><stop stop-color="#a2c1de" offset="0"></stop><stop stop-color="#a2cbde" offset="0.2222222222222222"></stop></linearGradient><linearGradient x1="0.1" y1="0" x2="0" y2="1" id="SvgjsLinearGradient1144"><stop stop-color="#b0cbe4" offset="0"></stop><stop stop-color="#b0d4e4" offset="0.3333333333333333"></stop></linearGradient><linearGradient x1="0.1" y1="0" x2="0" y2="1" id="SvgjsLinearGradient1145"><stop stop-color="#bfd4e9" offset="0"></stop><stop stop-color="#bfdbe9" offset="0.4444444444444444"></stop></linearGradient><linearGradient x1="0.1" y1="0" x2="0" y2="1" id="SvgjsLinearGradient1146"><stop stop-color="#cedeee" offset="0"></stop><stop stop-color="#cee3ee" offset="0.5555555555555556"></stop></linearGradient><linearGradient x1="0.1" y1="0" x2="0" y2="1" id="SvgjsLinearGradient1147"><stop stop-color="#dde8f3" offset="0"></stop><stop stop-color="#ddecf3" offset="0.6666666666666666"></stop></linearGradient><linearGradient x1="0.1" y1="0" x2="0" y2="1" id="SvgjsLinearGradient1148"><stop stop-color="#ecf2f8" offset="0"></stop><stop stop-color="#ecf4f8" offset="0.7777777777777778"></stop></linearGradient><linearGradient x1="0.1" y1="0" x2="0" y2="1" id="SvgjsLinearGradient1149"><stop stop-color="#fafcfd" offset="0"></stop><stop stop-color="#fafcfd" offset="0.8888888888888888"></stop></linearGradient></defs></svg>